<svg xmlns="http://www.w3.org/2000/svg" version="1.1" xmlns:xlink="http://www.w3.org/1999/xlink" width="16" height="16"><svg width="16" height="16" fill="currentColor" class="bi bi-check2-circle" viewBox="0 0 16 16" version="1.1" id="SvgjsSvg1016" xmlns="http://www.w3.org/2000/svg" xmlns:svg="http://www.w3.org/2000/svg">
  <defs id="SvgjsDefs1015"></defs>
  <g id="SvgjsG1014" style="fill:#01aaff;fill-opacity:1;stroke-width:1">
    <path id="SvgjsPath1013" style="baseline-shift:baseline;display:inline;overflow:visible;opacity:1;vector-effect:none;fill:#01aaff;fill-opacity:1;stroke-width:1;stroke-linecap:square;enable-background:accumulate;stop-color:#000000;stop-opacity:1" d="M 8.2402344,2.5058594 C 8.0362645,2.4968036 7.8318645,2.4998504 7.6269531,2.5136719 7.0805228,2.5505291 6.5340097,2.6676605 6.0058594,2.8730469 3.893258,3.6945926 2.5,5.7332795 2.5,8 c 0,2.26672 1.393258,4.305407 3.5058594,5.126953 2.0418955,0.79405 4.3572056,0.295191 5.8925786,-1.248047 0.10496,-0.09357 0.191422,-0.204444 0.287109,-0.30664 6.05e-4,-0.721788 1.76e-4,-2.0431067 0,-3.0000004 l -1,0.9160156 V 11.179688 C 9.9278595,12.440449 8.0403763,12.843267 6.3691406,12.193359 4.6379843,11.520149 3.5,9.8574482 3.5,8 3.5,6.1425517 4.6379842,4.4798505 6.3691406,3.8066406 8.100297,3.1334308 10.063486,3.5895299 11.318359,4.9589844 L 11.486328,5.140625 12.222656,4.4667969 12.054688,4.2851562 C 11.049721,3.1884302 9.6680234,2.5692498 8.2402344,2.5058594 Z"></path>
    <path style="baseline-shift:baseline;display:inline;overflow:visible;opacity:1;vector-effect:none;fill:#01aaff;fill-opacity:1;stroke-width:1;stroke-linecap:square;enable-background:accumulate;stop-color:#000000;stop-opacity:1" d="M 13.929688,4.2597656 13.560547,4.5976562 8.03125,9.6640625 6.3417969,7.8222656 6.0039062,7.453125 5.2675781,8.1289063 5.6054687,8.4960938 7.96875,11.078125 14.236328,5.3359375 14.605469,4.9980469 Z" id="SvgjsPath1012"></path>
  </g>
</svg><style>@media (prefers-color-scheme: light) { :root { filter: none; } }
@media (prefers-color-scheme: dark) { :root { filter: none; } }
</style></svg>